<svg width="116" height="32" viewBox="0 0 116 32" fill="none" xmlns="http://www.w3.org/2000/svg">
<g clip-path="url(#clip0_3399_2775)">
<path d="M107.739 23.0043H114.574V20.7832H107.738C107.996 21.5011 107.996 22.2864 107.738 23.0043" fill="white"/>
<path d="M47.1129 8.99425H41.4364V23.0007H46.7126C50.1149 23.0007 51.456 21.46 51.456 18.8187C51.456 16.4767 49.7345 15.6762 49.7345 15.6762C50.1951 15.3647 50.5714 14.944 50.8298 14.4517C51.0882 13.9595 51.2208 13.4109 51.2156 12.855C51.2156 10.4931 49.8945 8.99219 47.1129 8.99219V8.99425ZM47.3326 11.2133C48.3935 11.2133 48.9119 11.8937 48.9119 12.8948C48.9119 14.0352 48.171 14.636 47.0903 14.636H43.758V11.2167L47.3326 11.2133ZM43.758 16.8372H47.0923C48.6538 16.8372 49.0946 17.7572 49.0946 18.8187C49.0946 20.139 48.6139 20.7796 46.7929 20.7796H43.758V16.8372ZM61.5998 8.99425H59.2577V23.0007H61.5998V8.99425ZM70.9479 8.99425V23.0007H80.0061V20.783H73.2893V8.99425H70.9479ZM87.6815 8.99425V23.0007H96.7398V20.783H90.0195V8.99425H87.6815Z" fill="white"/>
<path d="M111.306 10.9753L111.12 11.2177L104.528 19.7926C104.122 19.8148 103.73 19.9545 103.401 20.1947C103.073 20.435 102.82 20.7654 102.676 21.146C102.531 21.5266 102.5 21.9411 102.586 22.3391C102.672 22.7372 102.871 23.1017 103.16 23.3886C103.449 23.6755 103.815 23.8724 104.214 23.9554C104.613 24.0384 105.027 24.004 105.407 23.8564C105.786 23.7088 106.115 23.4542 106.353 23.1236C106.59 22.793 106.727 22.4006 106.746 21.9938C106.765 21.6379 106.691 21.2833 106.533 20.9639L107.305 19.9656L113.299 12.2071C113.749 12.19 114.182 12.0288 114.533 11.7472C114.885 11.4657 115.137 11.0786 115.252 10.6431C115.367 10.2076 115.339 9.74671 115.172 9.32826C115.006 8.9098 114.709 8.55595 114.326 8.31882C113.943 8.08169 113.494 7.97383 113.045 8.01113C112.596 8.04842 112.171 8.2289 111.833 8.52598C111.494 8.82305 111.26 9.22102 111.164 9.66124C111.069 10.1015 111.118 10.5607 111.303 10.9712" fill="white"/>
<path d="M110.129 8.99414H103.501V11.2153H110.129C109.872 10.4973 109.872 9.71212 110.129 8.99414Z" fill="white"/>
<path fill-rule="evenodd" clip-rule="evenodd" d="M10.3394 0H21.6606C27.3709 0 32 4.6291 32 10.3394V21.6606C32 27.3709 27.3709 32 21.6606 32H10.3394C4.6291 32 0 27.3709 0 21.6606V10.3394C0 4.6291 4.6291 0 10.3394 0ZM18.2154 11.1891L18.4035 10.9439C18.2149 10.5284 18.1649 10.0632 18.2608 9.61701C18.3568 9.17084 18.5936 8.76733 18.9363 8.46599C19.2791 8.16465 19.7096 7.98145 20.1645 7.94341C20.6193 7.90537 21.0743 8.01451 21.4623 8.25473C21.8504 8.49495 22.1509 8.85352 22.3197 9.27755C22.4884 9.70158 22.5164 10.1686 22.3994 10.6097C22.2825 11.0509 22.0269 11.4427 21.6703 11.7275C21.3136 12.0123 20.8749 12.175 20.4188 12.1915L14.3523 20.042L13.5757 21.0554C13.7771 21.466 13.8409 21.9305 13.7576 22.3802C13.6744 22.8299 13.4485 23.2409 13.1134 23.5521C12.7783 23.8634 12.3518 24.0585 11.8972 24.1084C11.4425 24.1584 10.9839 24.0606 10.5892 23.8295C10.1945 23.5985 9.88468 23.2464 9.70571 22.8256C9.52675 22.4047 9.48812 21.9373 9.59555 21.4928C9.70298 21.0483 9.95076 20.6501 10.3022 20.3574C10.6536 20.0647 11.09 19.8929 11.5466 19.8676L18.2154 11.1891ZM10.5071 8.94115H17.2135H17.2149C16.9546 9.66784 16.9546 10.4624 17.2149 11.1891H10.5071V8.94115ZM21.7104 23.1158H14.7931H14.7924C15.0532 22.3892 15.0532 21.5946 14.7924 20.8679H21.7104V23.1158Z" fill="white"/>
</g>
<defs>
<clipPath id="clip0_3399_2775">
<rect width="115.328" height="32" fill="white"/>
</clipPath>
</defs>
</svg>
