<svg width="15" height="16" viewBox="0 0 15 16" fill="none" xmlns="http://www.w3.org/2000/svg">
<path fill-rule="evenodd" clip-rule="evenodd" d="M14.1334 9.264C14.4158 9.416 14.6337 9.656 14.7869 9.896C15.0855 10.392 15.0613 11 14.7708 11.536L14.206 12.496C13.9075 13.008 13.3508 13.328 12.778 13.328C12.4956 13.328 12.181 13.248 11.9228 13.088C11.713 12.952 11.471 12.904 11.2128 12.904C10.414 12.904 9.74439 13.568 9.72019 14.36C9.72019 15.28 8.97793 16 8.0501 16H6.95284C6.01694 16 5.27467 15.28 5.27467 14.36C5.25854 13.568 4.58889 12.904 3.79015 12.904C3.5239 12.904 3.28186 12.952 3.08015 13.088C2.82198 13.248 2.49925 13.328 2.22494 13.328C1.64404 13.328 1.08734 13.008 0.788819 12.496L0.232121 11.536C-0.0663982 11.016 -0.0825344 10.392 0.215985 9.896C0.345074 9.656 0.587117 9.416 0.861432 9.264C1.08734 9.152 1.23256 8.968 1.36972 8.752C1.77313 8.064 1.53108 7.16 0.845295 6.752C0.046555 6.296 -0.211624 5.28 0.248257 4.488L0.788819 3.544C1.25677 2.752 2.25721 2.472 3.06402 2.936C3.76594 3.32 4.67764 3.064 5.08911 2.384C5.2182 2.16 5.29081 1.92 5.27467 1.68C5.25854 1.368 5.34729 1.072 5.50058 0.832C5.7991 0.336 6.33966 0.016 6.92863 0H8.06623C8.66327 0 9.20383 0.336 9.50235 0.832C9.64758 1.072 9.74439 1.368 9.72019 1.68C9.70405 1.92 9.77667 2.16 9.90576 2.384C10.3172 3.064 11.2289 3.32 11.9389 2.936C12.7377 2.472 13.7462 2.752 14.206 3.544L14.7466 4.488C15.2146 5.28 14.9564 6.296 14.1496 6.752C13.4638 7.16 13.2217 8.064 13.6332 8.752C13.7623 8.968 13.9075 9.152 14.1334 9.264ZM5.2182 8.008C5.2182 9.264 6.24284 10.264 7.50953 10.264C8.77622 10.264 9.77667 9.264 9.77667 8.008C9.77667 6.752 8.77622 5.744 7.50953 5.744C6.24284 5.744 5.2182 6.752 5.2182 8.008Z" fill="#1F78FF"/>
</svg>